<svg width="127" height="121" viewBox="0 0 127 121" fill="none" xmlns="http://www.w3.org/2000/svg">
<path d="M24.8224 38.4127C-44.4916 38.4127 107.745 49.0735 107.745 64.9846C107.745 80.8956 -45.7448 95.0714 23.5691 95.0714" stroke="black"/>
<ellipse cx="61.7288" cy="60.5" rx="7.85638" ry="60.5" fill="#100BEC"/>
<ellipse cx="7.29487" cy="65.9497" rx="7.29487" ry="65.9497" transform="matrix(0.750383 0.661004 -0.769061 0.639175 108.173 11.5238)" fill="#100BEC"/>
<ellipse cx="7.29493" cy="65.9492" rx="7.29493" ry="65.9492" transform="matrix(0.750418 -0.660964 0.769027 0.639216 0 21.1672)" fill="#100BEC"/>
<path d="M102.833 97.9524C102.833 99.4251 104.027 100.619 105.5 100.619C106.973 100.619 108.167 99.4251 108.167 97.9524C108.167 96.4796 106.973 95.2857 105.5 95.2857C104.027 95.2857 102.833 96.4796 102.833 97.9524ZM106.2 24.0079C106.2 25.4807 107.394 26.6746 108.867 26.6746C110.34 26.6746 111.534 25.4807 111.534 24.0079C111.534 22.5352 110.34 21.3413 108.867 21.3413C107.394 21.3413 106.2 22.5352 106.2 24.0079ZM17.4575 65.9169C17.4575 67.2357 18.1748 68.4686 19.3548 69.608C20.5377 70.7504 22.2383 71.8518 24.3357 72.9166C28.5334 75.0477 34.4273 77.0843 41.2473 79.0111C54.8941 82.8666 72.356 86.3112 87.6289 89.1882C95.2705 90.6277 102.361 91.9245 108.165 93.0615C113.978 94.2003 118.465 95.1721 120.91 95.9587C121.521 96.155 121.985 96.334 122.305 96.4939C122.466 96.574 122.576 96.6424 122.646 96.6969C122.723 96.757 122.715 96.7721 122.698 96.7329C122.668 96.6602 122.676 96.5617 122.719 96.4931C122.743 96.4559 122.749 96.4732 122.657 96.5207C122.478 96.6134 122.129 96.7203 121.551 96.8232C119.259 97.2321 114.176 97.4524 105.5 97.4524V98.4524C114.153 98.4524 119.33 98.2351 121.727 97.8077C122.322 97.7016 122.796 97.5745 123.117 97.4089C123.274 97.3273 123.449 97.2094 123.562 97.031C123.696 96.8212 123.716 96.5754 123.622 96.3496C123.542 96.1573 123.395 96.0133 123.261 95.9085C123.119 95.7981 122.945 95.6958 122.752 95.5993C122.366 95.4061 121.846 95.209 121.216 95.0067C118.704 94.1987 114.157 93.2163 108.357 92.0802C102.549 90.9423 95.4475 89.6434 87.814 88.2055C72.5371 85.3277 55.117 81.8905 41.5192 78.0488C34.7169 76.127 28.8979 74.1112 24.7883 72.0249C22.7321 70.981 21.1304 69.9326 20.0494 68.8887C18.9655 67.842 18.4575 66.8522 18.4575 65.9169H17.4575ZM108.867 24.5079C113.193 24.5079 116.616 24.6011 119.235 24.7793C121.863 24.9582 123.647 25.221 124.715 25.5473C125.258 25.713 125.553 25.8772 125.689 26.006C125.75 26.0642 125.759 26.0968 125.76 26.1C125.761 26.1023 125.761 26.1046 125.761 26.1095C125.76 26.1151 125.758 26.1281 125.75 26.1498C125.708 26.2572 125.56 26.4513 125.19 26.7195C124.835 26.9765 124.335 27.2606 123.689 27.5693C121.096 28.8084 116.435 30.3152 110.426 32.0328C104.428 33.7469 97.1279 35.6603 89.2783 37.7166C73.588 41.8267 55.7064 46.5067 41.7473 51.2882C34.7705 53.678 28.7482 56.1015 24.4623 58.5026C22.3207 59.7024 20.5883 60.91 19.385 62.1224C18.1875 63.3291 17.4575 64.599 17.4575 65.9169H18.4575C18.4575 64.9808 18.9792 63.951 20.0948 62.8268C21.2047 61.7084 22.8469 60.5539 24.9511 59.3751C29.1566 57.0189 35.1103 54.6186 42.0714 52.2342C55.9882 47.4672 73.8304 42.7969 89.5317 38.6839C97.3779 36.6286 104.69 34.7121 110.7 32.9943C116.698 31.2799 121.439 29.7525 124.12 28.4715C124.792 28.1502 125.353 27.8363 125.776 27.5293C126.185 27.2335 126.533 26.8976 126.683 26.5107C126.763 26.3034 126.788 26.0763 126.727 25.8461C126.668 25.6203 126.538 25.4329 126.377 25.2806C126.069 24.9884 125.591 24.7693 125.008 24.5909C123.823 24.2291 121.942 23.9613 119.303 23.7816C116.653 23.6013 113.205 23.5079 108.867 23.5079V24.5079Z" fill="black"/>
<path d="M105 57.6191C105 59.2501 103.979 60.889 101.933 62.4552C99.894 64.0158 96.9124 65.4427 93.1832 66.65C85.7304 69.0629 75.4031 70.5635 63.9734 70.5635C52.5438 70.5635 42.2165 69.0629 34.7637 66.65C31.0345 65.4427 28.0529 64.0158 26.0141 62.4552C23.968 60.889 22.9468 59.2501 22.9468 57.6191C22.9468 55.988 23.968 54.3491 26.0141 52.7829C28.0529 51.2223 31.0345 49.7954 34.7637 48.5881C42.2165 46.1752 52.5438 44.6746 63.9734 44.6746C75.4031 44.6746 85.7304 46.1752 93.1832 48.5881C96.9124 49.7954 99.894 51.2223 101.933 52.7829C103.979 54.3491 105 55.988 105 57.6191Z" fill="white" stroke="black"/>
<path d="M54.8234 57.7998C54.8234 57.1748 54.6305 56.6914 54.2448 56.3496C53.859 56.0078 53.3488 55.8369 52.714 55.8369C52.1769 55.8369 51.7155 56.0225 51.3297 56.3936C50.944 56.7646 50.7511 57.209 50.7511 57.7266C50.7511 58.0195 50.7902 58.2832 50.8683 58.5176C50.9464 58.7471 51.0514 58.9399 51.1832 59.0962C51.32 59.2476 51.4811 59.3745 51.6666 59.4771C51.8522 59.5747 52.0451 59.6455 52.2452 59.6895C52.4503 59.7334 52.6676 59.7554 52.8971 59.7554C53.4537 59.7554 53.9616 59.6187 54.4205 59.3452V59.8726C53.9469 60.1216 53.4367 60.2461 52.8898 60.2461C52.5382 60.2461 52.2062 60.1997 51.8937 60.1069C51.5861 60.0093 51.3053 59.8652 51.0514 59.6748C50.7975 59.4795 50.5949 59.2158 50.4435 58.8838C50.297 58.5469 50.2238 58.1611 50.2238 57.7266C50.2238 57.0527 50.4606 56.4814 50.9342 56.0127C51.4078 55.5439 52.0011 55.3096 52.714 55.3096C53.5001 55.3096 54.1349 55.5317 54.6183 55.9761C55.1066 56.4155 55.3507 57.0234 55.3507 57.7998V63H54.8234V57.7998ZM56.4054 57.7998V63H55.8781V57.7998C55.8781 56.877 55.5826 56.1445 54.9918 55.6025C54.401 55.0557 53.6417 54.7822 52.714 54.7822C51.8546 54.7822 51.1368 55.0679 50.5607 55.6392C49.9845 56.2104 49.6964 56.9062 49.6964 57.7266C49.6964 58.2246 49.7819 58.6714 49.9528 59.0669C50.1285 59.4624 50.3654 59.7798 50.6632 60.019C50.9611 60.2583 51.2931 60.4414 51.6593 60.5684C52.0304 60.6904 52.421 60.7515 52.8312 60.7515C53.3878 60.7515 53.9176 60.6221 54.4205 60.3633V60.9199C53.8932 61.1396 53.361 61.2495 52.8239 61.2495C52.3405 61.2495 51.8815 61.1763 51.4469 61.0298C51.0123 60.8784 50.6242 60.6611 50.2824 60.3779C49.9406 60.0898 49.6696 59.7188 49.4694 59.2646C49.2692 58.8057 49.1691 58.293 49.1691 57.7266C49.1691 56.7646 49.5084 55.9468 50.1871 55.2729C50.8707 54.5942 51.713 54.2549 52.714 54.2549C53.4171 54.2549 54.047 54.3989 54.6036 54.687C55.1603 54.9702 55.5997 55.3828 55.922 55.9248C56.2443 56.4668 56.4054 57.0918 56.4054 57.7998ZM57.4601 57.7998V63H56.9327V57.7998C56.9327 56.9941 56.7472 56.2812 56.3761 55.6611C56.0099 55.0361 55.507 54.5576 54.8673 54.2256C54.2277 53.8936 53.5099 53.7275 52.714 53.7275C51.9572 53.7275 51.2662 53.9082 50.6412 54.2695C50.0162 54.626 49.5255 55.1094 49.1691 55.7197C48.8175 56.3301 48.6417 56.999 48.6417 57.7266C48.6417 58.3516 48.7565 58.9229 48.986 59.4404C49.2155 59.9531 49.5231 60.3755 49.9088 60.7075C50.2994 61.0396 50.7413 61.2983 51.2345 61.4839C51.7326 61.6646 52.2526 61.7549 52.7946 61.7549C53.3463 61.7549 53.8883 61.6401 54.4205 61.4106V61.9453C53.8639 62.1553 53.317 62.2603 52.7799 62.2603C51.9352 62.2603 51.1588 62.0698 50.4508 61.689C49.7428 61.3081 49.1764 60.7686 48.7516 60.0703C48.3268 59.3721 48.1144 58.5908 48.1144 57.7266C48.1144 57.1113 48.2316 56.5254 48.466 55.9688C48.7052 55.4121 49.0275 54.9312 49.4327 54.5259C49.838 54.1206 50.3263 53.7983 50.8976 53.5591C51.4689 53.3198 52.0743 53.2002 52.714 53.2002C53.6076 53.2002 54.4132 53.3906 55.131 53.7715C55.8536 54.1523 56.4225 54.6943 56.8375 55.3975C57.2526 56.1006 57.4601 56.9014 57.4601 57.7998ZM58.5148 57.7998V63H57.9874V57.7998C57.9874 56.8037 57.7555 55.915 57.2916 55.1338C56.8278 54.3477 56.1954 53.7422 55.3947 53.3174C54.5939 52.8877 53.7003 52.6729 52.714 52.6729C51.7667 52.6729 50.9 52.8999 50.1139 53.354C49.3278 53.8081 48.7101 54.4233 48.2609 55.1997C47.8117 55.9712 47.587 56.8135 47.587 57.7266C47.587 58.3271 47.6823 58.8984 47.8727 59.4404C48.068 59.9775 48.3317 60.4487 48.6637 60.854C49.0006 61.2544 49.3864 61.6011 49.8209 61.894C50.2604 62.187 50.7316 62.4092 51.2345 62.5605C51.7423 62.7119 52.2575 62.7876 52.7799 62.7876C53.3561 62.7876 53.903 62.6777 54.4205 62.458V63C53.8785 63.1904 53.3219 63.2856 52.7506 63.2856C52.1598 63.2856 51.5836 63.2026 51.0221 63.0366C50.4655 62.8706 49.9479 62.6265 49.4694 62.3042C48.9957 61.9771 48.5783 61.5938 48.2169 61.1543C47.8556 60.71 47.5724 60.1924 47.3673 59.6016C47.1622 59.0107 47.0597 58.3857 47.0597 57.7266C47.0597 56.9697 47.2013 56.2495 47.4845 55.5659C47.7726 54.8774 48.1632 54.2842 48.6564 53.7861C49.1544 53.2832 49.755 52.8853 50.4581 52.5923C51.1661 52.2944 51.9181 52.1455 52.714 52.1455C53.5245 52.1455 54.2863 52.2822 54.9992 52.5557C55.712 52.8291 56.3273 53.21 56.8449 53.6982C57.3624 54.1816 57.7701 54.7773 58.068 55.4854C58.3659 56.1934 58.5148 56.9648 58.5148 57.7998ZM64.6671 57.9829H63.8322C62.8068 57.9829 62.0182 57.7754 61.4664 57.3604C60.9147 56.9404 60.6388 56.3643 60.6388 55.6318C60.6388 54.9482 60.9635 54.3794 61.6129 53.9253C62.2623 53.4663 63.173 53.2368 64.3449 53.2368C65.1261 53.2368 65.8536 53.3442 66.5275 53.5591C67.2062 53.7739 67.7701 54.0767 68.2194 54.4673L67.8092 54.7969C67.4088 54.4697 66.9059 54.2158 66.3004 54.0352C65.695 53.8545 65.0431 53.7642 64.3449 53.7642C63.3146 53.7642 62.526 53.9399 61.9791 54.2915C61.4371 54.6431 61.1661 55.0898 61.1661 55.6318C61.1661 56.2178 61.3883 56.6694 61.8326 56.9868C62.2819 57.2993 62.9484 57.4556 63.8322 57.4556H64.6378C65.6779 57.4556 66.4738 57.6655 67.0255 58.0854C67.5822 58.5005 67.8605 59.0742 67.8605 59.8066C67.8605 60.4902 67.5358 61.0615 66.8864 61.5205C66.2369 61.9746 65.3263 62.2017 64.1544 62.2017C63.3732 62.2017 62.6432 62.0942 61.9645 61.8794C61.2907 61.6646 60.7291 61.3618 60.2799 60.9712L60.6901 60.6416C61.0905 60.9688 61.5934 61.2227 62.1989 61.4033C62.8043 61.584 63.4562 61.6743 64.1544 61.6743C65.1847 61.6743 65.9708 61.4985 66.5128 61.147C67.0597 60.7954 67.3331 60.3486 67.3331 59.8066C67.3331 59.2207 67.1085 58.7715 66.6593 58.459C66.215 58.1416 65.5509 57.9829 64.6671 57.9829ZM64.6671 59.0376H63.8322C62.4747 59.0376 61.4274 58.73 60.6901 58.1147C59.9528 57.4946 59.5841 56.667 59.5841 55.6318C59.5841 55.1582 59.6891 54.7139 59.8991 54.2988C60.109 53.8838 60.4093 53.52 60.7999 53.2075C61.1954 52.8901 61.6984 52.6411 62.3087 52.4604C62.9191 52.2749 63.5978 52.1821 64.3449 52.1821C65.2872 52.1821 66.1686 52.3262 66.9889 52.6143C67.8092 52.8975 68.4928 53.2954 69.0397 53.8081L68.6149 54.123C68.1168 53.6738 67.4943 53.3271 66.7472 53.083C66.0001 52.834 65.1993 52.7095 64.3449 52.7095C63.0265 52.7095 61.9913 52.9878 61.2394 53.5444C60.4874 54.1011 60.1115 54.7969 60.1115 55.6318C60.1115 56.5156 60.4337 57.2163 61.0783 57.7339C61.7228 58.2515 62.6408 58.5103 63.8322 58.5103H64.6378C66.0831 58.5103 66.8058 58.9424 66.8058 59.8066C66.8058 60.1973 66.5836 60.5195 66.1393 60.7734C65.6998 61.0225 65.0382 61.147 64.1544 61.147C63.5343 61.147 62.9581 61.0762 62.4259 60.9346C61.8937 60.7881 61.4542 60.5806 61.1076 60.312L61.525 59.9897C62.1354 60.4097 63.0118 60.6196 64.1544 60.6196C64.8868 60.6196 65.424 60.5439 65.7658 60.3926C66.1076 60.2412 66.2785 60.0459 66.2785 59.8066C66.2785 59.5283 66.1588 59.3306 65.9196 59.2134C65.6803 59.0962 65.2628 59.0376 64.6671 59.0376ZM64.6671 56.9282H63.8322C62.4064 56.9282 61.6935 56.4961 61.6935 55.6318C61.6935 55.2412 61.9132 54.9214 62.3527 54.6724C62.797 54.4185 63.4611 54.2915 64.3449 54.2915C64.965 54.2915 65.5411 54.3647 66.0734 54.5112C66.6056 54.6528 67.0451 54.8579 67.3917 55.1265L66.9743 55.4487C66.3639 55.0288 65.4874 54.8188 64.3449 54.8188C63.6124 54.8188 63.0753 54.8945 62.7335 55.0459C62.3917 55.1973 62.2208 55.3926 62.2208 55.6318C62.2208 55.9102 62.3405 56.1079 62.5797 56.2251C62.819 56.3423 63.2365 56.4009 63.8322 56.4009H64.6671C66.0245 56.4009 67.0719 56.7109 67.8092 57.3311C68.5465 57.9463 68.9152 58.7715 68.9152 59.8066C68.9152 60.2803 68.8102 60.7246 68.6002 61.1396C68.3903 61.5547 68.0875 61.9209 67.692 62.2383C67.3014 62.5508 66.8009 62.7998 66.1906 62.9854C65.5802 63.166 64.9015 63.2563 64.1544 63.2563C63.212 63.2563 62.3307 63.1147 61.5104 62.8315C60.6901 62.5435 60.0065 62.1431 59.4596 61.6304L59.8844 61.3154C60.3825 61.7646 61.005 62.1138 61.7521 62.3628C62.4992 62.6069 63.2999 62.729 64.1544 62.729C65.4728 62.729 66.5079 62.4507 67.2599 61.894C68.0118 61.3374 68.3878 60.6416 68.3878 59.8066C68.3878 58.9229 68.0656 58.2222 67.421 57.7046C66.7765 57.187 65.8585 56.9282 64.6671 56.9282ZM81.1539 52.4531L78.2169 57.7705L81.11 63H80.5241L77.631 57.7705L80.568 52.4531H81.1539ZM79.9747 52.4531L77.0377 57.7705L79.9308 63H79.3449L76.4518 57.7705L79.3888 52.4531H79.9747ZM78.7955 52.4531L75.8585 57.7705L78.7516 63H78.1657L75.2726 57.7705L78.2096 52.4531H78.7955ZM77.6163 52.4531L74.672 57.7705L77.5724 63H76.9865L74.0861 57.7705L77.0304 52.4531H77.6163ZM73.2365 52.4531V63H73.7638V52.4531H73.2365ZM72.1818 52.4531V63H72.7091V52.4531H72.1818ZM71.1271 52.4531V63H71.6544V52.4531H71.1271ZM70.0724 52.4531V63H70.5997V52.4531H70.0724Z" fill="#EF0B0B"/>
</svg>
