<svg width="217" height="177" viewBox="0 0 217 177" fill="none" xmlns="http://www.w3.org/2000/svg">
<path d="M10.9012 75.5292C11.7694 57.732 14.5441 39.7037 18.3147 22.2871C18.5545 21.1793 21.7926 5.25104 21.9733 12.3704C22.4954 32.9396 18.6911 53.724 16.678 74.1332C15.1877 89.241 13.9481 104.395 13.597 119.577C13.4332 126.662 11.7117 147.208 14.7524 140.806C15.6716 138.871 17.3795 130.99 17.5445 130.216C20.1547 117.968 22.1924 105.596 24.2358 93.2445C26.8833 77.2423 29.65 61.2235 31.5049 45.1051C31.9791 40.984 32.4435 28.7099 33.2379 32.7815C35.0175 41.9019 32.5916 53.1399 32.1788 62.339C31.7353 72.2233 31.6975 82.1012 31.6975 91.9929C31.6975 99.952 32.6307 86.1574 32.6602 85.8792C33.829 74.8596 34.9443 63.8355 36.03 52.8074C36.1848 51.2346 37.3673 35.9875 38.6295 45.6347C40.8118 62.3134 40.8656 79.2928 42.5769 96.0366C42.9551 99.7368 43.7897 123.928 49.1239 124.728C53.9204 125.447 60.2225 91.7246 60.6773 89.9229C64.9777 72.8889 68.8031 55.6611 73.5787 38.7507C74.0082 37.2298 75.0971 32.8912 75.5043 34.4182C77.035 40.1583 74.2145 50.9206 73.4824 56.1291C70.7967 75.2364 67.1515 94.187 64.3359 113.27C63.7112 117.505 63.3576 120.538 63.0843 124.728C63.0038 125.962 62.9811 127.199 62.9399 128.434C62.8662 130.644 62.7345 131.472 63.2769 128.964C67.3395 110.174 72.7338 91.7928 78.0075 73.3148C81.2172 62.0687 83.0297 48.8915 88.2131 38.3175C89.4817 35.7294 89.4977 38.1793 89.6091 39.6654C90.2145 47.7377 89.5393 56.1309 88.9833 64.1683C88.1249 76.5761 86.2964 88.9156 85.6135 101.332C85.4972 103.447 84.7486 105.753 85.6135 107.686C85.748 107.987 86.1952 107.31 86.3356 107.012C87.3906 104.776 90.976 93.9064 91.0533 93.6778C96.4084 77.8355 101.02 61.6651 106.795 45.9716C107.345 44.4759 109.72 38.376 110.839 36.8252C112.825 34.0712 113.762 43.1557 113.871 46.5493C114.356 61.5821 114.016 76.6641 114.016 91.704C114.016 95.3305 113.749 98.9669 114.016 102.584C114.066 103.263 113.959 104.904 114.545 104.557C115.577 103.948 115.722 102.457 116.134 101.332C117.265 98.2443 118.169 95.0781 119.167 91.9447C124.24 76.0098 128.985 59.8086 135.39 44.3349C135.982 42.9036 138.952 36.0284 140.396 34.3219C142.511 31.8227 142.521 40.628 142.562 43.9017C142.708 55.297 142.549 66.6913 142.177 78.0806C142 83.4976 141.897 85.2603 141.792 90.4043C141.759 92.0414 152.392 95.309 154.838 89.9229C161.537 75.1697 155.161 62.9836 162.107 48.3305C163.941 44.4622 166.369 39.3628 169.424 36.1512C175.365 29.9056 176.834 38.3926 177.56 43.1796C179.181 53.8739 178.968 65.0253 179.004 75.8181C179.021 80.8245 178.928 85.8316 179.004 90.8375C179.021 91.9773 178.238 102.198 181.315 95.5552C188.316 80.4393 192.923 63.8254 197.682 47.8972C199.892 40.4992 206.72 18.5942 206.01 26.2826C204.668 40.8184 198.719 56.0588 194.601 69.945C189.935 85.6785 185.689 102.8 177.945 117.41C177.017 119.161 184.107 122.802 174.094 121.936C153.586 124.631 173.584 100.724 173.66 99.5026C174.985 78.3095 178.501 57.5936 183.24 36.9214C183.472 35.9117 184.3 32.919 184.107 33.9368C182.342 43.2369 167.073 51.887 164.321 60.943C155.097 91.3065 145.434 122.541 131.875 151.301M131.875 151.301C131.02 153.116 138.974 163.005 137.123 165.068C136.437 165.832 135.281 166.953 134.379 166.464C129.874 164.024 131.911 156.424 131.875 151.301ZM131.875 151.301C131.664 120.734 136.597 90.1216 143.862 60.5097C146.667 49.0776 150.076 37.757 153.586 26.5233C153.926 25.4369 155.1 22.2384 154.838 23.3461C152.523 33.1394 148.779 42.8041 145.258 52.1816C138.733 69.564 131.985 87.5019 122.488 103.546C122.031 104.32 118.258 110.303 117.097 111.345C114.553 113.628 115.368 104.589 115.701 101.188C117.112 86.7425 121.008 72.9622 124.606 58.9693C125.835 54.1911 130.26 38.8834 123.788 52.8074C115.561 70.5086 108.072 88.5432 100.055 106.338C97.7144 111.535 94.856 117.721 92.1605 122.802C90.36 126.196 86.0652 135.615 85.084 131.9C84.4139 129.364 85.6094 119.495 85.7098 118.614C86.5959 110.84 87.2749 106.433 89.1277 98.8287C90.6676 92.5088 92.3259 87.7062 94.2305 81.5466C94.8993 79.3837 95.5885 77.2265 96.2042 75.0478C97.2382 71.389 96.7374 72.4473 95.6265 75.0478C88.7883 91.0556 82.1254 107.238 72.4234 121.791C70.7491 124.303 55.0571 147.466 50.8569 139.555C49.2633 136.553 48.8061 127.093 48.7388 124.631C48.4632 114.561 49.2317 104.377 50.9051 94.448C52.3567 85.835 54.8448 77.3558 57.3076 68.9823C59.4612 61.6601 53.0506 83.6594 50.3274 90.7894C46.4059 101.057 41.0411 109.655 35.1635 118.855" stroke="#100BEC" stroke-width="20" stroke-linecap="round"/>
</svg>
