<svg width="1004" height="970" viewBox="0 0 1004 970" fill="none" xmlns="http://www.w3.org/2000/svg">
<circle cx="569.5" cy="516.5" r="296" stroke="#100BEC" stroke-width="5"/>
<circle cx="525.5" cy="443.5" r="298" stroke="#100BEC"/>
<circle opacity="0.3" cx="614.5" cy="596.5" r="296.5" stroke="#100BEC" stroke-width="4"/>
<circle cx="425.5" cy="522.5" r="297" stroke="#100BEC" stroke-width="3"/>
<circle cx="647.5" cy="516.5" r="298" stroke="#100BEC"/>
<circle cx="569.5" cy="516.5" r="298" stroke="#100BEC"/>
<circle cx="525.5" cy="443.5" r="298" stroke="#100BEC"/>
<circle cx="614.5" cy="596.5" r="298" stroke="#100BEC"/>
<circle cx="425.5" cy="522.5" r="298" stroke="#100BEC"/>
<circle cx="647.5" cy="516.5" r="298" stroke="#100BEC"/>
<path d="M447.901 501.529C448.769 483.732 451.544 465.704 455.315 448.287C455.555 447.179 458.793 431.251 458.973 438.37C459.495 458.94 455.691 479.724 453.678 500.133C452.188 515.241 450.948 530.395 450.597 545.577C450.433 552.662 448.712 573.208 451.752 566.806C452.672 564.871 454.379 556.99 454.544 556.216C457.155 543.968 459.192 531.596 461.236 519.245C463.883 503.242 466.65 487.224 468.505 471.105C468.979 466.984 469.443 454.71 470.238 458.781C472.018 467.902 469.592 479.14 469.179 488.339C468.735 498.223 468.697 508.101 468.697 517.993C468.697 525.952 469.631 512.157 469.66 511.879C470.829 500.86 471.944 489.835 473.03 478.807C473.185 477.235 474.367 461.987 475.63 471.635C477.812 488.313 477.866 505.293 479.577 522.037C479.955 525.737 480.79 549.928 486.124 550.728C490.92 551.447 497.222 517.725 497.677 515.923C501.978 498.889 505.803 481.661 510.579 464.751C511.008 463.23 512.097 458.891 512.504 460.418C514.035 466.158 511.215 476.921 510.482 482.129C507.797 501.236 504.152 520.187 501.336 539.27C500.711 543.505 500.358 546.538 500.084 550.728C500.004 551.962 499.981 553.199 499.94 554.434C499.866 556.644 499.735 557.472 500.277 554.964C504.339 536.174 509.734 517.793 515.008 499.315C518.217 488.069 520.03 474.892 525.213 464.317C526.482 461.729 526.498 464.179 526.609 465.665C527.215 473.738 526.539 482.131 525.983 490.168C525.125 502.576 523.296 514.916 522.614 527.332C522.497 529.447 521.749 531.753 522.614 533.686C522.748 533.987 523.195 533.31 523.336 533.012C524.391 530.776 527.976 519.906 528.053 519.678C533.408 503.835 538.02 487.665 543.795 471.972C544.345 470.476 546.72 464.376 547.839 462.825C549.825 460.071 550.762 469.156 550.871 472.549C551.356 487.582 551.016 502.664 551.016 517.704C551.016 521.331 550.749 524.967 551.016 528.584C551.066 529.263 550.959 530.904 551.545 530.557C552.577 529.948 552.722 528.457 553.134 527.332C554.265 524.244 555.169 521.078 556.167 517.945C561.24 502.01 565.985 485.809 572.39 470.335C572.982 468.904 575.952 462.028 577.396 460.322C579.511 457.823 579.521 466.628 579.562 469.902C579.708 481.297 579.549 492.691 579.177 504.081C579 509.498 578.897 511.26 578.792 516.404C578.759 518.041 589.392 521.309 591.838 515.923C598.537 501.17 592.161 488.984 599.107 474.33C600.941 470.462 603.369 465.363 606.424 462.151C612.365 455.906 613.834 464.393 614.56 469.18C616.181 479.874 615.968 491.025 616.004 501.818C616.021 506.825 615.928 511.832 616.004 516.838C616.021 517.977 615.238 528.198 618.315 521.555C625.316 506.439 629.923 489.825 634.682 473.897C636.892 466.499 643.72 444.594 643.01 452.283C641.668 466.818 635.719 482.059 631.601 495.945C626.935 511.678 622.689 528.8 614.945 543.41C614.017 545.161 621.107 548.802 611.094 547.936C590.586 550.631 610.584 526.724 610.66 525.503C611.985 504.31 615.501 483.594 620.24 462.921C620.472 461.912 621.3 458.919 621.107 459.937C619.342 469.237 604.073 477.887 601.321 486.943C592.097 517.306 582.434 548.541 568.875 577.301M568.875 577.301C568.02 579.116 575.974 589.005 574.123 591.068C573.437 591.832 572.281 592.953 571.379 592.464C566.874 590.024 568.911 582.424 568.875 577.301ZM568.875 577.301C568.664 546.734 573.597 516.122 580.862 486.51C583.667 475.078 587.076 463.757 590.586 452.523C590.926 451.437 592.1 448.238 591.838 449.346C589.523 459.139 585.779 468.804 582.258 478.182C575.733 495.564 568.985 513.502 559.488 529.546C559.031 530.32 555.258 536.303 554.097 537.345C551.553 539.628 552.368 530.589 552.701 527.188C554.112 512.743 558.008 498.962 561.606 484.969C562.835 480.191 567.26 464.883 560.788 478.807C552.561 496.509 545.072 514.543 537.055 532.338C534.714 537.535 531.856 543.721 529.16 548.802C527.36 552.196 523.065 561.615 522.084 557.9C521.414 555.364 522.609 545.495 522.71 544.614C523.596 536.84 524.275 532.433 526.128 524.829C527.668 518.509 529.326 513.706 531.23 507.547C531.899 505.384 532.588 503.226 533.204 501.048C534.238 497.389 533.737 498.447 532.627 501.048C525.788 517.056 519.125 533.238 509.423 547.791C507.749 550.303 492.057 573.466 487.857 565.555C486.263 562.553 485.806 553.093 485.739 550.631C485.463 540.561 486.232 530.377 487.905 520.448C489.357 511.835 491.845 503.356 494.308 494.982C496.461 487.66 490.051 509.659 487.327 516.789C483.406 527.057 478.041 535.655 472.163 544.855" stroke="#100BEC" stroke-width="20" stroke-linecap="round"/>
</svg>
